<svg xmlns="http://www.w3.org/2000/svg" width="201.425" height="148.277" viewBox="0 0 201.425 148.277"><g id="Group_4" data-name="Group 4" transform="translate(321.055 -446.449)"><g id="Group_3" data-name="Group 3" transform="translate(-321.055 446.449)"><g id="Group_1" data-name="Group 1" transform="translate(43.75)"><path id="Path_1" data-name="Path 1" d="M-242.928,499.81q-2.434,1.941-5.051,4.374t-5.084,5.145a30.149,30.149,0,0,0-5.176,7.3q-1.109,2.68-.031,3.2t3.944-1.171a33.27,33.27,0,0,0,6.746-5.823,49.763,49.763,0,0,0,3.944-4.591q1.849-2.433,3.45-4.836t2.928-4.621q1.326-2.219,2.249-4.005a19.173,19.173,0,0,0-3.42,1.786A49.381,49.381,0,0,0-242.928,499.81Z" transform="translate(280.703 -443.811)" fill="#567407"></path><path id="Path_2" data-name="Path 2" d="M-198.212,459.414c-8.408-7.87-17.795-10.55-27.632-12.434-15.984-3.059-32.807,7.44-41.273,22.53-6.043,10.771-11.338,19.772-12.207,30.59-.975,12.14.748,24.925,9.006,34.305,9,10.228,25.144,16.567,38.079,17.606,12.792,1.027,23.868-4.155,34.586-12.853C-187.6,531-177.488,519.81-177.474,505.65-177.46,490.443-185.738,471.091-198.212,459.414Zm-4.671,38.629q-1.911,4.867-3.944,9a76.424,76.424,0,0,1-4.036,7.27,44.894,44.894,0,0,1-3.789,5.206,11.447,11.447,0,0,1-3.266,2.8,3.474,3.474,0,0,1-1.972.308,7.992,7.992,0,0,1-2.156-.555,8.743,8.743,0,0,1-1.88-1.047A2.935,2.935,0,0,1-225,519.732a9.837,9.837,0,0,1-.186-4.375A42.913,42.913,0,0,1-223.8,509.1q1.017-3.48,2.526-7.456t3.237-8.04a15.658,15.658,0,0,0-1.941,0q-1.079.062-2.157.215a20.815,20.815,0,0,0-2.065.4,12.932,12.932,0,0,0-1.6.492q-.987,2.588-2.5,5.73t-3.453,6.409a73.009,73.009,0,0,1-4.312,6.439,53.561,53.561,0,0,1-5.022,5.823,29.6,29.6,0,0,1-5.977,4.62,22.084,22.084,0,0,1-5.7,2.373,11.484,11.484,0,0,1-4.807.247,5.134,5.134,0,0,1-3.234-1.818,5.439,5.439,0,0,1-1.172-3.851,13.04,13.04,0,0,1,1.911-5.761,44.037,44.037,0,0,1,7.332-9.119,65.258,65.258,0,0,1,9.489-7.7,50.691,50.691,0,0,1,11.583-5.73q.245-.555.709-2t.863-3.234q.4-1.787.678-3.76a16.133,16.133,0,0,0,.123-3.666,7.178,7.178,0,0,0-.832-2.9,2.844,2.844,0,0,0-2.1-1.448,8.188,8.188,0,0,0-4.19.585,24.5,24.5,0,0,0-4.96,2.588,39.888,39.888,0,0,0-5.052,4.005,33.82,33.82,0,0,0-4.345,4.837,24.151,24.151,0,0,0-2.9,5.083,8.723,8.723,0,0,0-.677,4.775,3.586,3.586,0,0,0,1.971,2.618,4.49,4.49,0,0,0,3.76.154,6.072,6.072,0,0,1-2.1,1.14,9.04,9.04,0,0,1-2.619.431,10.251,10.251,0,0,1-2.742-.308,6.238,6.238,0,0,1-2.4-1.171,5.561,5.561,0,0,1-1.632-2.157,6.231,6.231,0,0,1-.4-3.173,15.99,15.99,0,0,1,1.632-5.269,30.771,30.771,0,0,1,3.6-5.669,35.787,35.787,0,0,1,5.083-5.205,29.96,29.96,0,0,1,6.069-3.975,20.885,20.885,0,0,1,6.563-2,13.3,13.3,0,0,1,6.562.8,15.722,15.722,0,0,1,5.577,3.234,7.978,7.978,0,0,1,2.28,4.005,12.128,12.128,0,0,1,0,4.714q-.462,2.526-1.2,5.36a34.781,34.781,0,0,1,4.345-.186,16.957,16.957,0,0,1,3.111.37q1.294-2.648,2.5-5.083t2.248-4.437q1.047-2,1.911-3.481a16.883,16.883,0,0,1,1.479-2.218,1.492,1.492,0,0,1,1.695-.432,5.777,5.777,0,0,1,2.033,1.079,5.831,5.831,0,0,1,1.477,1.725q.524.955-.031,1.509a23.164,23.164,0,0,0-2.833,4.005q-1.789,2.958-3.76,6.809t-3.851,8.164q-1.879,4.314-3.173,8.133a39.968,39.968,0,0,0-1.724,6.655q-.433,2.835.492,3.759a13.764,13.764,0,0,0,3.7-3.451,52.574,52.574,0,0,0,4.22-6.193,108.67,108.67,0,0,0,5.515-10.814.819.819,0,0,1,.678-.308,1.962,1.962,0,0,1,.831.185,1.316,1.316,0,0,1,.617.585A.93.93,0,0,1-202.883,498.043Z" transform="translate(279.57 -446.449)" fill="#567407"></path></g><g id="Group_2" data-name="Group 2" transform="translate(0 120.714)"><path id="Path_3" data-name="Path 3" d="M-321.055,560.916h2.754v11.561h14.035V560.916h2.754v27.562h-2.754v-13.3H-318.3v13.3h-2.754Z" transform="translate(321.055 -560.916)" fill="#567407"></path><path id="Path_4" data-name="Path 4" d="M-296.145,560.916h15.8v2.7h-13.041v8.638h12.929v2.7h-12.929v10.83h12.929v2.7h-15.683Z" transform="translate(322.415 -560.916)" fill="#567407"></path><path id="Path_5" data-name="Path 5" d="M-276.512,560.916h5.49a33.282,33.282,0,0,1,6.221.375,7.089,7.089,0,0,1,3.991,2.411,6.879,6.879,0,0,1,1.537,4.549,7.362,7.362,0,0,1-1.059,3.959,6.6,6.6,0,0,1-3.026,2.578,13.9,13.9,0,0,1-5.434.892l9.912,12.8h-3.407l-9.913-12.8h-1.557v12.8h-2.755Zm2.755,2.7v9.369l4.748.038a11.8,11.8,0,0,0,4.082-.525,4.246,4.246,0,0,0,2.065-1.677,4.665,4.665,0,0,0,.74-2.576,4.463,4.463,0,0,0-.751-2.52,4.189,4.189,0,0,0-1.97-1.621,12.008,12.008,0,0,0-4.054-.487Z" transform="translate(323.486 -560.916)" fill="#567407"></path><path id="Path_6" data-name="Path 6" d="M-254.5,560.916h5.433a12.91,12.91,0,0,1,5.041.777,6.184,6.184,0,0,1,2.783,2.389,6.56,6.56,0,0,1,1.021,3.579,6.432,6.432,0,0,1-.9,3.345,6.632,6.632,0,0,1-2.629,2.445,10.188,10.188,0,0,1,3.307,1.715,6.87,6.87,0,0,1,1.8,2.38,7.13,7.13,0,0,1,.644,3.024,7.432,7.432,0,0,1-2.427,5.614,9.091,9.091,0,0,1-6.511,2.295h-7.57Zm2.7,2.7v8.826h1.577A12.316,12.316,0,0,0-246,571.9a4.55,4.55,0,0,0,2.14-1.686,4.424,4.424,0,0,0,.789-2.557,3.619,3.619,0,0,0-1.323-2.97,6.66,6.66,0,0,0-4.216-1.078Zm0,11.6V585.78h3.416a12.252,12.252,0,0,0,4.429-.591,5.019,5.019,0,0,0,2.261-1.844,4.731,4.731,0,0,0,.854-2.718,4.7,4.7,0,0,0-1.2-3.2,6.176,6.176,0,0,0-3.3-1.874,24.169,24.169,0,0,0-4.9-.336Z" transform="translate(324.688 -560.916)" fill="#567407"></path><path id="Path_7" data-name="Path 7" d="M-222.288,560.916l12.854,27.562h-2.975l-4.335-9.069h-11.873l-4.294,9.069h-3.072l13.022-27.562Zm-.347,5.856-4.723,9.976h9.424Z" transform="translate(325.698 -560.916)" fill="#567407"></path><path id="Path_8" data-name="Path 8" d="M-206.739,588.478V560.916h.6l18.344,21.128V560.916h2.717v27.562h-.619l-18.193-20.871v20.871Z" transform="translate(327.294 -560.916)" fill="#567407"></path><path id="Path_9" data-name="Path 9" d="M-179.822,588.478V560.916h.6l18.344,21.128V560.916h2.717v27.562h-.619l-18.193-20.871v20.871Z" transform="translate(328.763 -560.916)" fill="#567407"></path><path id="Path_10" data-name="Path 10" d="M-141.535,560.916l12.854,27.562h-2.975l-4.335-9.069h-11.873l-4.294,9.069h-3.072l13.022-27.562Zm-.347,5.856-4.723,9.976h9.424Z" transform="translate(330.106 -560.916)" fill="#567407"></path></g></g></g></svg>