<svg xmlns="http://www.w3.org/2000/svg" width="334.207" height="345.997" viewBox="0 0 334.207 345.997"><g id="Group_74" data-name="Group 74" transform="translate(3134.654 2429.572)"><path id="Path_199" data-name="Path 199" d="M-2868.321-2387.125c-27.526-25.763-58.253-34.535-90.456-40.71-52.337-10.007-107.41,24.365-135.118,73.766-19.768,35.262-37.1,64.713-39.961,100.137-3.181,39.74,2.45,81.586,29.489,112.291,29.471,33.481,82.315,54.241,124.646,57.644,41.888,3.361,78.143-13.611,113.223-42.068,32.914-26.736,66.009-63.356,66.051-109.7C-2800.387-2285.548-2827.488-2348.9-2868.321-2387.125Z" fill="#567407"></path><g id="Group_73" data-name="Group 73" transform="translate(-3110.409 -2392.136)"><path id="Path_200" data-name="Path 200" d="M-3037.736-2351.295c-10.268-4.983-24.556-2.938-30.4,6.865-4.4,7.376-3.064,16.841-.122,24.91,5.342,14.653,15.335,27.189,26.483,38.1,5.54,5.423,11.559,10.61,18.764,13.47s15.843,3.07,22.356-1.137c3.612-2.333,6.319-5.82,8.718-9.391,10.282-15.3,16.115-33.122,21.051-50.887,1.475-5.3,2.875-10.988,1.183-16.229-2.8-8.667-13.121-12.743-22.218-12.3a15.217,15.217,0,0,0-8.026,2.24c-2.189,1.522-3.626,3.883-4.949,6.2-4.182,7.318-7.083,15.434-11.283,22.635C-3022.648-2336.139-3026.787-2345.98-3037.736-2351.295Z" transform="translate(3162.808 2451.082)" fill="#fbeccd"></path><g id="Group_72" data-name="Group 72"><g id="Group_71" data-name="Group 71"><path id="Path_201" data-name="Path 201" d="M-3078.723-2266.854c3.788-8.425,11.234-10.811,20.541-6.626l7.541,3.391,5.641-12.546,5.361,2.412-17.484,38.875-12.251-5.508C-3079.093-2251.228-3082.511-2258.429-3078.723-2266.854Zm5.417,2.437c-2.462,5.478-.215,10.241,6.323,13.183l6.541,2.94,7.762-17.26-6.717-3.021C-3065.818-2271.462-3070.814-2269.955-3073.306-2264.417Z" transform="translate(3155.186 2513.033)" fill="#fbeccd"></path><path id="Path_202" data-name="Path 202" d="M-3092.382-2276.105l4.791-3.481a5.378,5.378,0,0,0,1.715,2.375c2.62,2.208,7.539,2.382,11.621-2.456l10.28-12.2,4.347,3.664-19.649,23.312-3.188-2.432a41.208,41.208,0,0,1,3.987-5.933l-.2-.168c-3.471,2.313-7.57,3.165-11.026.253A15.326,15.326,0,0,1-3092.382-2276.105Z" transform="translate(3145.19 2505.438)" fill="#fbeccd"></path><path id="Path_203" data-name="Path 203" d="M-3104.7-2291.682l25.186-17.162,2.486,3.307a42.559,42.559,0,0,1-4.9,4.276l.037.053a10.665,10.665,0,0,1,11.2,4.631c4.11,6.03,2.636,12.581-3.394,16.691l-15.421,10.51-3.237-4.75,15.42-10.51c3.682-2.508,4.72-6.263,2.137-10.049-3.163-4.643-9.513-3.757-13.141-1.282l-13.179,8.979Z" transform="translate(3135.059 2491.469)" fill="#fbeccd"></path><path id="Path_204" data-name="Path 204" d="M-3108.051-2305.076l1.7,4.889-10.634-.853-1.981-7.092Zm23.669,4.052c5.259-2.073,7.776-6.733,6.143-12.584a10.329,10.329,0,0,0-6.187-7.26l2.111-4.211c4.373,1.73,7.393,5.582,8.8,10.622,2.623,9.4-1.759,16.992-10.718,19.5-8.775,2.452-16.7-1.438-19.189-10.335-2.415-8.649,2.3-15.062,10.015-17.218a14.079,14.079,0,0,1,2.869-.532Zm-3.954.969-4.624-16.55c-4.836,1.42-7.158,5.355-5.853,10.018C-3097.5-2301.857-3093.292-2299.542-3088.336-2300.054Z" transform="translate(3123.317 2478.111)" fill="#fbeccd"></path><path id="Path_205" data-name="Path 205" d="M-3088.984-2345.668c9.346.61,15.147,6.943,14.566,15.838-.4,6.057-3.857,9.52-8.018,10.8a37.978,37.978,0,0,1,6.846,1.223l-.262,3.994-45.5-2.97.372-5.67,20.3,1.323c-3.032-2.136-5.257-5.715-4.907-11.064C-3105.03-2340.761-3098.393-2346.282-3088.984-2345.668Zm-.377,5.8c-6.509-.424-11.135,3.028-11.527,9.021-.419,6.446,5.105,10.042,9.615,10.337l1.225.078c4.577.3,10.383-2.364,10.842-9.387C-3078.836-2335.49-3082.918-2339.447-3089.361-2339.868Z" transform="translate(3121.353 2461.133)" fill="#fbeccd"></path><path id="Path_206" data-name="Path 206" d="M-3072.05-2358.647a13.883,13.883,0,0,1-.87,3c-1.25,2.909-3.534,4.458-6.8,3.055l-.058-.025-.051.118c1.094,1.384,3.371,5.246.563,11.773-2.654,6.174-7.288,8.119-11.857,6.154-6.112-2.626-6.046-9.49-.738-21.835l.357-.831-1.779-.764c-3.8-1.633-7.229-.366-9.22,4.264-1.708,3.975-1.151,7.1,1.756,8.348a3.43,3.43,0,0,0,1.553.315l-1.287,5.284a9.322,9.322,0,0,1-2.584-.689c-5.1-2.193-6.838-8.144-3.775-15.266,3.267-7.6,9.272-10.286,15.742-7.5l11.336,4.87c1.543.667,2.317.5,2.876-.8a5.045,5.045,0,0,0,.315-1.061Zm-13.162,4.116-2.67-1.148-.355.829c-4.108,9.555-3.792,13.56-.706,14.885,2.2.948,4.214-.155,5.746-3.717C-3080.85-2349.141-3082.6-2353.41-3085.212-2354.531Z" transform="translate(3132.047 2445.823)" fill="#fbeccd"></path><path id="Path_207" data-name="Path 207" d="M-3106.737-2375.582l3.363-4.581,36.75,26.985-3.365,4.582Z" transform="translate(3133.379 2432.789)" fill="#fbeccd"></path><path id="Path_208" data-name="Path 208" d="M-3062.963-2382.532c5.917,7.093,5.12,15.911-2.122,21.952s-16.061,5.246-21.977-1.846-5.287-16.11,1.954-22.153S-3068.879-2389.623-3062.963-2382.532Zm-4.464,3.722c-4.054-4.858-10.056-5.906-14.619-2.1s-4.61,9.9-.554,14.759,9.894,5.709,14.455,1.9S-3063.371-2373.951-3067.427-2378.81Z" transform="translate(3146.273 2425.891)" fill="#fbeccd"></path><path id="Path_209" data-name="Path 209" d="M-3051.019-2353.806a10.777,10.777,0,0,1-4.809.189l-.127-4.825a7.561,7.561,0,0,0,3.383-.037c3.071-.76,3.892-3.092,4.247-5.974l.4-3.225-20.04-27.25,6.208-1.531,13.265,18.676a14.031,14.031,0,0,1,1.81,3.013l.06-.016a15.372,15.372,0,0,1,.2-3.509l3.16-22.735,5.644-1.395-5.43,38.332C-3043.657-2359.288-3045.564-2355.155-3051.019-2353.806Z" transform="translate(3165.278 2414.472)" fill="#fbeccd"></path><path id="Path_210" data-name="Path 210" d="M-3011.826-2361.609a13.718,13.718,0,0,1-3.115-.235c-3.1-.625-5.087-2.543-4.382-6.022l.011-.063-.125-.026c-1.13,1.353-4.444,4.373-11.407,2.965-6.584-1.332-9.438-5.466-8.454-10.342,1.318-6.517,8.048-7.86,21.213-5.2l.888.176.385-1.9c.816-4.05-1.126-7.146-6.064-8.143-4.241-.857-7.182.327-7.809,3.429a3.46,3.46,0,0,0,.009,1.582l-5.436-.173a9.338,9.338,0,0,1,.146-2.672c1.1-5.444,6.566-8.361,14.163-6.825,8.1,1.635,11.968,6.965,10.576,13.864l-2.445,12.092c-.333,1.646-.018,2.37,1.375,2.651a5.119,5.119,0,0,0,1.1.091Zm-6.724-12.032.572-2.851-.884-.177c-10.192-2.06-14.046-.928-14.711,2.362-.474,2.344,1.017,4.094,4.815,4.863C-3022.933-2368.267-3019.116-2370.857-3018.55-2373.641Zm-1.154-25.6-5.127-.709,5.59-9.081,7.217,1.46Z" transform="translate(3188.711 2409.034)" fill="#fbeccd"></path><path id="Path_211" data-name="Path 211" d="M-2972.345-2358.67l-10.881,15.005-4.651-3.372,10.878-15.007c2.616-3.607,2.319-7.491-1.391-10.184-4.655-3.373-10.253-.492-12.831,3.064l-9.364,12.915-4.653-3.374,10.88-15c2.616-3.609,2.318-7.492-1.395-10.183-4.652-3.375-10.251-.5-12.829,3.063l-9.363,12.917-4.6-3.339,17.892-24.681,3.356,2.2a41.18,41.18,0,0,1-3.542,6.205,10.81,10.81,0,0,1,12.678.337c4.391,3.185,5.99,7.694,4.719,12.2a10.885,10.885,0,0,1,12.639.39C-2968.894-2371.245-2968.062-2364.577-2972.345-2358.67Z" transform="translate(3202.651 2419.057)" fill="#fbeccd"></path><path id="Path_212" data-name="Path 212" d="M-2987.428-2334.935a13.91,13.91,0,0,1-1.863-2.508c-1.555-2.756-1.406-5.51,1.688-7.258l.055-.031-.062-.109c-1.765.027-6.214-.5-9.708-6.682-3.3-5.85-2.043-10.713,2.286-13.159,5.792-3.272,11.208.938,17.814,12.633l.444.786,1.688-.95c3.6-2.034,4.665-5.53,2.186-9.914-2.127-3.766-4.945-5.215-7.7-3.66a3.5,3.5,0,0,0-1.192,1.044l-3.421-4.223a9.242,9.242,0,0,1,2.116-1.637c4.834-2.732,10.614-.509,14.425,6.237,4.063,7.2,2.566,13.607-3.562,17.068l-10.742,6.065c-1.462.825-1.8,1.537-1.1,2.774a5.217,5.217,0,0,0,.652.892Zm4.7-12.96,2.528-1.429-.445-.787c-5.111-9.054-8.491-11.225-11.413-9.573-2.081,1.174-2.428,3.448-.523,6.821C-2989.665-2347.69-2985.209-2346.5-2982.732-2347.895Z" transform="translate(3221.867 2439.717)" fill="#fbeccd"></path><path id="Path_213" data-name="Path 213" d="M-2948.786-2356.05l1.593,5.456-43.776,12.781-1.593-5.456Z" transform="translate(3227.321 2452.629)" fill="#fbeccd"></path><path id="Path_214" data-name="Path 214" d="M-2974.054-2312.618c-9.229.414-15.767-5.563-16.191-14.985s5.554-15.962,14.781-16.376,16.028,5.55,16.452,14.973S-2964.827-2313.035-2974.054-2312.618Zm-.26-5.809c6.323-.283,10.792-4.429,10.526-10.364s-5.089-9.665-11.416-9.382-10.534,4.418-10.268,10.353S-2980.637-2318.142-2974.314-2318.427Z" transform="translate(3229.21 2462.543)" fill="#fbeccd"></path></g></g></g></g></svg>