<svg xmlns="http://www.w3.org/2000/svg" width="62.896" height="62.908" viewBox="0 0 62.896 62.908"><g id="instagram_1_" data-name="instagram (1)" transform="translate(-0.449 0)"><path id="Path_215" data-name="Path 215" d="M63.185,18.5a22.987,22.987,0,0,0-1.462-7.632,16.115,16.115,0,0,0-9.2-9.2A23.046,23.046,0,0,0,44.886.2C41.519.037,40.45,0,31.909,0S22.3.037,18.944.184a22.993,22.993,0,0,0-7.631,1.462,15.349,15.349,0,0,0-5.58,3.638,15.488,15.488,0,0,0-3.625,5.567A23.048,23.048,0,0,0,.645,18.483c-.16,3.368-.2,4.437-.2,12.978s.037,9.61.184,12.965A22.986,22.986,0,0,0,2.1,52.057a16.112,16.112,0,0,0,9.2,9.2,23.049,23.049,0,0,0,7.632,1.462c3.355.148,4.424.184,12.965.184s9.61-.036,12.965-.184a22.981,22.981,0,0,0,7.631-1.462,16.091,16.091,0,0,0,9.2-9.2,23.064,23.064,0,0,0,1.462-7.632c.147-3.355.184-4.424.184-12.965s-.012-9.61-.16-12.965ZM57.52,44.18a17.243,17.243,0,0,1-1.082,5.837,10.435,10.435,0,0,1-5.973,5.973,17.3,17.3,0,0,1-5.837,1.081c-3.318.148-4.313.184-12.707.184s-9.4-.036-12.707-.184a17.234,17.234,0,0,1-5.837-1.081,9.68,9.68,0,0,1-3.613-2.347,9.78,9.78,0,0,1-2.347-3.613,17.307,17.307,0,0,1-1.081-5.837c-.148-3.318-.184-4.314-.184-12.707s.036-9.4.184-12.707a17.234,17.234,0,0,1,1.081-5.837,9.562,9.562,0,0,1,2.36-3.613A9.765,9.765,0,0,1,13.389,6.98,17.316,17.316,0,0,1,19.227,5.9c3.318-.147,4.314-.184,12.707-.184s9.4.037,12.707.184A17.243,17.243,0,0,1,50.478,6.98a9.673,9.673,0,0,1,3.613,2.347,9.778,9.778,0,0,1,2.347,3.613,17.313,17.313,0,0,1,1.082,5.837c.147,3.318.184,4.313.184,12.707s-.037,9.377-.184,12.695Zm0,0" transform="translate(0 0)" fill="#567407"></path><path id="Path_216" data-name="Path 216" d="M141.109,124.5a16.16,16.16,0,1,0,16.16,16.16A16.164,16.164,0,0,0,141.109,124.5Zm0,26.643a10.483,10.483,0,1,1,10.483-10.483A10.484,10.484,0,0,1,141.109,151.143Zm0,0" transform="translate(-109.2 -109.2)" fill="#567407"></path><path id="Path_217" data-name="Path 217" d="M370,92.374a3.773,3.773,0,1,1-3.773-3.773A3.773,3.773,0,0,1,370,92.374Zm0,0" transform="translate(-317.514 -77.713)" fill="#567407"></path></g></svg>