<svg xmlns="http://www.w3.org/2000/svg" width="62.908" height="62.908" viewBox="0 0 62.908 62.908"><g id="Layer_2" data-name="Layer 2" transform="translate(-1.25 -1.25)"><path id="Path_218" data-name="Path 218" d="M32.7,64.158A31.454,31.454,0,1,1,64.158,32.7,31.454,31.454,0,0,1,32.7,64.158Zm0-58.519A27.065,27.065,0,1,0,59.769,32.7,27.065,27.065,0,0,0,32.7,5.639Z" transform="translate(0 0)" fill="#567407"></path><path id="Path_219" data-name="Path 219" d="M21.148,64.158c-9.027,0-13.9-16.207-13.9-31.454S12.122,1.25,21.148,1.25s13.9,16.207,13.9,31.454S30.175,64.158,21.148,64.158Zm0-58.519c-4.488,0-9.509,11.575-9.509,27.065s5.021,27.065,9.509,27.065S30.658,48.194,30.658,32.7,25.637,5.639,21.148,5.639Z" transform="translate(11.556)" fill="#567407"></path><path id="Path_220" data-name="Path 220" d="M26.845,14.981a37.862,37.862,0,0,1-10.4-1.463A34.874,34.874,0,0,1,5.322,8.05a2.194,2.194,0,1,1,2.61-3.511,30.582,30.582,0,0,0,9.723,4.766,33.569,33.569,0,0,0,18.39,0A30.559,30.559,0,0,0,45.759,4.53a2.194,2.194,0,1,1,2.61,3.526A34.854,34.854,0,0,1,37.25,13.521a37.862,37.862,0,0,1-10.4,1.46Z" transform="translate(5.859 5.287)" fill="#567407"></path><path id="Path_221" data-name="Path 221" d="M47.005,27.131a2.192,2.192,0,0,1-1.3-.43,30.582,30.582,0,0,0-9.723-4.778,33.569,33.569,0,0,0-18.39,0A30.559,30.559,0,0,0,7.877,26.7a2.194,2.194,0,1,1-2.61-3.526,34.854,34.854,0,0,1,11.119-5.466,37.961,37.961,0,0,1,20.818,0,34.875,34.875,0,0,1,11.119,5.469,2.192,2.192,0,0,1-1.308,3.956Z" transform="translate(5.914 28.893)" fill="#567407"></path><path id="Path_222" data-name="Path 222" d="M61.964,15.639H3.444a2.194,2.194,0,0,1,0-4.389H61.964a2.194,2.194,0,1,1,0,4.389Z" transform="translate(0 19.26)" fill="#567407"></path></g></svg>