<svg xmlns="http://www.w3.org/2000/svg" width="230.969" height="232.357" viewBox="0 0 230.969 232.357"><g id="Grupo_355" data-name="Grupo 355" transform="translate(1220.974 -1404.657)"><g id="Grupo_349" data-name="Grupo 349" transform="translate(-1220.974 1404.657)"><path id="Trazado_605" data-name="Trazado 605" d="M-990,1521.787c0,31.781-19.692,57.214-40.52,78.042s-46.26,37.185-78.04,37.185-57.79-15.784-78.617-36.61-33.792-46.836-33.792-78.617,12.853-57.9,33.679-78.729,46.949-38.4,78.729-38.4,57.334,18.142,78.16,38.969S-990,1490.006-990,1521.787Z" transform="translate(1220.974 -1404.657)" fill="#f2e2b0"></path></g><g id="Grupo_354" data-name="Grupo 354" transform="translate(-1186.282 1441.505)"><g id="Grupo_352" data-name="Grupo 352" transform="translate(32.639)"><g id="Grupo_351" data-name="Grupo 351"><g id="Grupo_350" data-name="Grupo 350"><path id="Trazado_606" data-name="Trazado 606" d="M-1121.132,1432.069c-4.154-7.088-8.553-6.844-12.708,0-16.644,24.757-40.749,60.32-46.592,83.1a76.323,76.323,0,0,1,7.932,4.345l.153-.166c7.191-7.832,17.842-14.341,31.645-19.331,7.21-2.6,14.115-9.252,14.182-9.319l3.581-3.476,2.885,4.074c.575.8,13.9,19.958,10.04,45.34-1.485,9.734-10.993,33.417-37.077,38.165a54.056,54.056,0,0,0,19.607,3.672,54.331,54.331,0,0,0,38.373-15.887,54.332,54.332,0,0,0,15.887-38.373C-1073.226,1502.7-1102.068,1460.42-1121.132,1432.069Z" transform="translate(1180.432 -1426.844)" fill="#5d7228"></path></g></g></g><g id="Grupo_353" data-name="Grupo 353" transform="translate(0 68.42)"><path id="Trazado_607" data-name="Trazado 607" d="M-1126.215,1469.469a2.789,2.789,0,0,0-4.217-.782c-2.872,2.4-7.949,6.2-13.285,8.129-14.326,5.18-23.821,11.526-29.952,18.2,11.7,8.576,15.664,18.413,16.719,26.053,16.531-16.506,21.293-32.146,21.959-34.546A90.348,90.348,0,0,1-1156.639,1525a33.161,33.161,0,0,1-.136,4.217,40.27,40.27,0,0,1-4.308,14.921c30.582-.045,40.93-25.93,42.371-35.373C-1115.935,1490.5-1122.8,1475.546-1126.215,1469.469Z" transform="translate(1217.54 -1468.041)" fill="#5d7228"></path><path id="Trazado_608" data-name="Trazado 608" d="M-1143.078,1519.4c-.355-8.344-4.022-18.064-15.645-26.506a76.917,76.917,0,0,0-19.119-9.734,40.961,40.961,0,0,1-11.187-6.774,2.789,2.789,0,0,0-4.217.815c-3.029,5.509-8.628,18.216-6.278,33.654,1.339,8.8,11.6,34.021,42.9,30.3l4.845-.912c-.342-.706-.7-1.379-1.073-2.018a21.5,21.5,0,0,0-2.167-3.086,13.494,13.494,0,0,0-2.411-2.25c-.136-.1-.279-.2-.415-.3a64.369,64.369,0,0,1-6.8-5.653,77.963,77.963,0,0,1-20.741-35.27c.666,2.368,4.979,16.106,19.6,30.457a97.673,97.673,0,0,0,9.707,8.332c.3.226.6.445.894.666a17.468,17.468,0,0,1,1.81,1.54,32.654,32.654,0,0,1,4.909,6.19l.181.3c.033-.007.116-.1.239-.266a34.686,34.686,0,0,0,4.858-15.11A31.373,31.373,0,0,0-1143.078,1519.4Z" transform="translate(1200.085 -1462.948)" fill="#5d7228"></path></g></g></g></svg>