<svg xmlns="http://www.w3.org/2000/svg" width="230.968" height="232.358" viewBox="0 0 230.968 232.358"><g id="Grupo_335" data-name="Grupo 335" transform="translate(1886.865 -1408.452)"><g id="Grupo_334" data-name="Grupo 334" transform="translate(-1886.865 1408.452)"><path id="Trazado_586" data-name="Trazado 586" d="M-1655.9,1525.582c0,31.781-19.693,57.216-40.52,78.042s-46.261,37.187-78.04,37.187-57.79-15.786-78.616-36.612-33.792-46.836-33.792-78.616,12.853-57.9,33.679-78.728,46.948-38.4,78.729-38.4,57.333,18.144,78.16,38.97S-1655.9,1493.8-1655.9,1525.582Z" transform="translate(1886.865 -1408.452)" fill="#f2e2b0"></path></g><path id="Trazado_587" data-name="Trazado 587" d="M-1757.226,1562.6s-18.734-3.288-28.98-12.124v26.074h-13.984v-26.074c-10.247,8.835-28.98,12.124-28.98,12.124a104.525,104.525,0,0,1,5.231-14.216c1.628-3.438,3.5-6.543,5.447-7.988-4.982.515-10.479-.448-15.761-2.059-12.755-3.886-24.247-11.625-24.247-11.625s19.232-10.945,32.219-13.436c-15.761-15.03-23.749-43.4-23.749-43.4s28.283,7.988,43.147,23.484c-2.209-32.07,13.685-56.417,13.685-56.417a100.371,100.371,0,0,1,13.735,44.775,91.043,91.043,0,0,1-.05,11.642c7.208-7.507,17.554-13.253,26.323-17.173a136.6,136.6,0,0,1,16.824-6.311s-7.989,28.366-23.749,43.4c12.971,2.491,32.219,13.436,32.219,13.436s-22.936,15.445-40.025,13.685C-1762.291,1544.569-1757.226,1562.6-1757.226,1562.6Z" transform="translate(18.743 18.831)" fill="#5d7228"></path><path id="Trazado_588" data-name="Trazado 588" d="M-1839.014,1502.05a74.8,74.8,0,0,0,7.756,2.342,104.813,104.813,0,0,0-4.534,12.954l-.166.614q-8.046,7.4-16.342,14.565a5.017,5.017,0,0,1-7.058-.531,5,5,0,0,1-.066-6.444C-1852.8,1517.545-1845.956,1509.74-1839.014,1502.05Z" transform="translate(17.376 61.848)" fill="#5d7228"></path><path id="Trazado_589" data-name="Trazado 589" d="M-1760.1,1445.023q-7.473,8.943-15.229,17.621a142.525,142.525,0,0,0-30.724,13.984c-.083-.764-.166-1.528-.266-2.275q2.715-2.666,5.447-5.281c10.994-10.562,22.122-20.992,33.664-31.023a5,5,0,0,1,7.058.5A4.984,4.984,0,0,1-1760.1,1445.023Z" transform="translate(53.223 18.746)" fill="#5d7228"></path></g></svg>