<svg xmlns="http://www.w3.org/2000/svg" width="230.968" height="232.358" viewBox="0 0 230.968 232.358"><g id="Grupo_348" data-name="Grupo 348" transform="translate(1379.527 -1408.452)"><g id="Grupo_342" data-name="Grupo 342" transform="translate(-1379.527 1408.452)"><path id="Trazado_597" data-name="Trazado 597" d="M-1148.559,1525.582c0,31.781-19.694,57.216-40.52,78.042s-46.261,37.187-78.04,37.187-57.79-15.786-78.617-36.612-33.792-46.836-33.792-78.617,12.853-57.9,33.679-78.728,46.949-38.4,78.729-38.4,57.333,18.144,78.159,38.97S-1148.559,1493.8-1148.559,1525.582Z" transform="translate(1379.527 -1408.452)" fill="#f2e2b0"></path></g><g id="Grupo_347" data-name="Grupo 347" transform="translate(-1335.339 1472.868)"><g id="Grupo_344" data-name="Grupo 344" transform="translate(48.124)"><g id="Grupo_343" data-name="Grupo 343"><path id="Trazado_598" data-name="Trazado 598" d="M-1312.716,1509.849a54.387,54.387,0,0,0-3.6,5.325c-.351-.057-3.687-5.268-6.109-13.4A91.7,91.7,0,0,0-1312.716,1509.849Z" transform="translate(1324.945 -1411.203)" fill="#5d7228"></path><path id="Trazado_599" data-name="Trazado 599" d="M-1309.181,1526.148a139.419,139.419,0,0,1-13.872-11.9,51.835,51.835,0,0,1,10.083-41.752c16.608,12.059,21.848,25.95,22.356,37.871a163.629,163.629,0,0,1-13.326,10.915A35.414,35.414,0,0,0-1309.181,1526.148Z" transform="translate(1323.944 -1430.551)" fill="#5d7228"></path><path id="Trazado_600" data-name="Trazado 600" d="M-1313.405,1508.834a30.973,30.973,0,0,1,3.1,4.409l-4.962-.933C-1314.691,1511.1-1314.061,1509.935-1313.405,1508.834Z" transform="translate(1329.674 -1406.537)" fill="#5d7228"></path><path id="Trazado_601" data-name="Trazado 601" d="M-1298.174,1499.058c-.99,11.227-5.592,19.73-6.94,21.587l-.6-.055a46.7,46.7,0,0,0-7.013-8.844,23.655,23.655,0,0,1,5.082-5.092A107.751,107.751,0,0,0-1298.174,1499.058Z" transform="translate(1331.354 -1412.997)" fill="#5d7228"></path><path id="Trazado_602" data-name="Trazado 602" d="M-1236.653,1504.586c-2.061,13.492-16.847,50.476-60.54,50.541a57.587,57.587,0,0,0,6.155-21.319,47.325,47.325,0,0,0,.194-6.025,129.1,129.1,0,0,0,30.93-54.979c-.952,3.43-7.754,25.775-31.374,49.359-1.506-10.913-7.171-24.97-23.89-37.223,8.761-9.538,22.328-18.6,42.8-26.006,6.822-2.468,13.349-7.077,17.586-10.475a5.551,5.551,0,0,1,8.374,1.729C-1241.333,1459.773-1232.931,1480.094-1236.653,1504.586Z" transform="translate(1329.736 -1447.238)" fill="#5d7228"></path></g></g><g id="Grupo_346" data-name="Grupo 346" transform="translate(0 18.028)"><g id="Grupo_345" data-name="Grupo 345"><path id="Trazado_603" data-name="Trazado 603" d="M-1271.468,1519.879c-.508-11.921-5.748-25.812-22.356-37.871-6.949-5.046-15.9-9.779-27.316-13.909-5.8-2.1-11.34-5.972-15.015-8.9a5.066,5.066,0,0,0-7.653,1.613c-4.426,8.427-11.5,25.876-8.309,46.855,1.911,12.568,16.57,48.611,61.3,43.286l6.922-1.3c-.49-1.008-1-1.968-1.535-2.883a30.96,30.96,0,0,0-3.1-4.409,19.277,19.277,0,0,0-3.448-3.215c-.194-.14-.4-.287-.591-.435a91.763,91.763,0,0,1-9.712-8.076c-21.635-20.609-28.677-46.457-29.638-50.393.953,3.383,7.117,23.01,28.011,43.517a139.409,139.409,0,0,0,13.872,11.9c.425.324.85.638,1.275.952a25.633,25.633,0,0,1,2.588,2.2,46.706,46.706,0,0,1,7.014,8.844l.259.434c.047-.008.166-.138.342-.379,1.349-1.857,5.951-10.36,6.941-21.587A45.085,45.085,0,0,0-1271.468,1519.879Z" transform="translate(1352.92 -1458.093)" fill="#5d7228"></path><path id="Trazado_604" data-name="Trazado 604" d="M-1271.616,1526.023c-.99,11.227-5.592,19.73-6.94,21.587-.176.241-.3.37-.342.379l-.259-.434a46.706,46.706,0,0,0-7.013-8.844,25.573,25.573,0,0,0-2.588-2.2c-.425-.314-.85-.628-1.276-.952a139.357,139.357,0,0,1-13.872-11.9c-20.894-20.507-27.057-40.134-28.011-43.517.962,3.936,8,29.785,29.638,50.393a91.656,91.656,0,0,0,9.712,8.076c.194.148.4.3.591.435a19.3,19.3,0,0,1,3.448,3.215,30.99,30.99,0,0,1,3.1,4.409c.536.915,1.045,1.875,1.535,2.883l-6.922,1.3c-44.728,5.324-59.386-30.718-61.3-43.287-3.127-20.539,3.591-37.693,8.027-46.314a5.554,5.554,0,0,1,8.369-1.812,55.958,55.958,0,0,0,14.581,8.555c11.421,4.13,20.368,8.863,27.317,13.909,16.608,12.059,21.848,25.95,22.356,37.871A45.037,45.037,0,0,1-1271.616,1526.023Z" transform="translate(1352.921 -1457.99)" fill="#5d7228"></path></g></g></g></g></svg>