<svg xmlns="http://www.w3.org/2000/svg" id="Grupo_356" data-name="Grupo 356" width="230.969" height="232.357" viewBox="0 0 230.969 232.357"><g id="Grupo_251" data-name="Grupo 251" transform="translate(0 0)"><path id="Trazado_471" data-name="Trazado 471" d="M-206.591,331.4c0,31.779-19.692,57.214-40.52,78.04s-46.259,37.187-78.04,37.187-57.79-15.784-78.617-36.612S-437.56,363.174-437.56,331.4s12.853-57.9,33.679-78.73,46.949-38.4,78.73-38.4,57.334,18.142,78.16,38.969S-206.591,299.615-206.591,331.4Z" transform="translate(437.56 -214.265)" fill="#f2e2b0"></path><path id="Trazado_472" data-name="Trazado 472" d="M-206.591,331.4c0,31.779-19.692,57.214-40.52,78.04s-46.259,37.187-78.04,37.187-57.79-15.784-78.617-36.612S-437.56,363.174-437.56,331.4s12.853-57.9,33.679-78.73,46.949-38.4,78.73-38.4,57.334,18.142,78.16,38.969S-206.591,299.615-206.591,331.4Z" transform="translate(437.56 -214.265)" fill="#f2e2b0"></path></g><g id="Grupo_260" data-name="Grupo 260" transform="translate(26.406 17.441)"><g id="Grupo_259" data-name="Grupo 259" transform="translate(29.143 38.997)"><path id="Trazado_489" data-name="Trazado 489" d="M-389.262,327.422C-377,319.377-377,319.377-355.6,353.8q40-44.959,79.777-89.668c-29.473,33.173-53.351,69.248-66.783,111.986-1.258,4-7.061,9.823-9.844,9.359-4.66-.779-10.152-5.084-12.544-9.421C-373.447,360.733-380.737,344.759-389.262,327.422Z" transform="translate(389.262 -264.136)" fill="#5d7228"></path></g></g></svg>